<?xml version="1.0" encoding="UTF-8" standalone="no"?>
<!DOCTYPE svg PUBLIC "-//W3C//DTD SVG 1.1//EN"
 "http://www.w3.org/Graphics/SVG/1.1/DTD/svg11.dtd">
<!-- Generated by graphviz version 2.43.0 (0)
 -->
<!-- Title: AutoHLA Pages: 1 -->
<svg width="1080pt" height="1935pt"
 viewBox="0.00 0.00 1080.00 1935.00" xmlns="http://www.w3.org/2000/svg" xmlns:xlink="http://www.w3.org/1999/xlink">
<g id="graph0" class="graph" transform="scale(1 1) rotate(0) translate(4 1931)">
<title>AutoHLA</title>
<polygon fill="#ffffff" stroke="transparent" points="-4,4 -4,-1931 1076,-1931 1076,4 -4,4"/>
<text text-anchor="start" x="383" y="-1912" font-family="DejaVu Sans" font-weight="bold" font-size="15.00">AutoHLA (public) — kiến trúc sau fix</text>
<text text-anchor="start" x="421.5" y="-1901.8" font-family="DejaVu Sans" font-size="9.00">dist/autohla&#45;public · autohla train | autohla impute</text>
<g id="clust1" class="cluster">
<title>cluster_train</title>
<path fill="#f7fbfd" stroke="#2980b9" d="M20,-545C20,-545 516,-545 516,-545 522,-545 528,-551 528,-557 528,-557 528,-1875 528,-1875 528,-1881 522,-1887 516,-1887 516,-1887 20,-1887 20,-1887 14,-1887 8,-1881 8,-1875 8,-1875 8,-557 8,-557 8,-551 14,-545 20,-545"/>
<text text-anchor="start" x="213" y="-1872" font-family="DejaVu Sans" font-weight="bold" font-size="15.00" fill="#2980b9">autohla train</text>
</g>
<g id="clust2" class="cluster">
<title>cluster_s1</title>
<path fill="#eef7ee" stroke="#27ae60" d="M183,-1277C183,-1277 392,-1277 392,-1277 398,-1277 404,-1283 404,-1289 404,-1289 404,-1548 404,-1548 404,-1554 398,-1560 392,-1560 392,-1560 183,-1560 183,-1560 177,-1560 171,-1554 171,-1548 171,-1548 171,-1289 171,-1289 171,-1283 177,-1277 183,-1277"/>
<text text-anchor="middle" x="287.5" y="-1548" font-family="DejaVu Sans" font-size="10.00" fill="#27ae60">S1 pretext (bỏ được: &#45;&#45;no&#45;s1, đo null trên F1)</text>
</g>
<g id="clust3" class="cluster">
<title>cluster_s2</title>
<path fill="#fdf2f7" stroke="#8e44ad" d="M257,-992C257,-992 507,-992 507,-992 513,-992 519,-998 519,-1004 519,-1004 519,-1239 519,-1239 519,-1245 513,-1251 507,-1251 507,-1251 257,-1251 257,-1251 251,-1251 245,-1245 245,-1239 245,-1239 245,-1004 245,-1004 245,-998 251,-992 257,-992"/>
<text text-anchor="middle" x="382" y="-1239" font-family="DejaVu Sans" font-size="10.00" fill="#8e44ad">S2 curriculum (warm&#45;start từ S1)</text>
</g>
<g id="clust4" class="cluster">
<title>cluster_ph</title>
<path fill="#fdf6ec" stroke="#d35400" d="M28,-650C28,-650 489,-650 489,-650 495,-650 501,-656 501,-662 501,-662 501,-963 501,-963 501,-969 495,-975 489,-975 489,-975 28,-975 28,-975 22,-975 16,-969 16,-963 16,-963 16,-662 16,-662 16,-656 22,-650 28,-650"/>
<text text-anchor="middle" x="258.5" y="-963" font-family="DejaVu Sans" font-size="10.00" fill="#d35400">Tầng hậu nghiệm (tắt bằng &#45;&#45;no&#45;posthoc; chỉ bật khi n_train &lt; 4000)</text>
</g>
<g id="clust5" class="cluster">
<title>cluster_imp</title>
<path fill="#f6fbf6" stroke="#16a085" d="M548,-83C548,-83 1052,-83 1052,-83 1058,-83 1064,-89 1064,-95 1064,-95 1064,-621 1064,-621 1064,-627 1058,-633 1052,-633 1052,-633 548,-633 548,-633 542,-633 536,-627 536,-621 536,-621 536,-95 536,-95 536,-89 542,-83 548,-83"/>
<text text-anchor="start" x="544" y="-618" font-family="DejaVu Sans" font-weight="bold" font-size="15.00" fill="#16a085">autohla impute</text>
<text text-anchor="start" x="674" y="-618" font-family="DejaVu Sans" font-size="15.00" fill="#16a085"> — gọi 1 mẫu KHÔNG phụ thuộc mẫu khác trong lô</text>
</g>
<!-- vcf -->
<g id="node1" class="node">
<title>vcf</title>
<polygon fill="#fdebd0" stroke="#e67e22" stroke-width="1.2" points="449.5,-1854 446.5,-1858 425.5,-1858 422.5,-1854 330.5,-1854 330.5,-1813 449.5,-1813 449.5,-1854"/>
<text text-anchor="middle" x="390" y="-1842" font-family="DejaVu Sans" font-size="10.00">train.vcf.gz</text>
<text text-anchor="middle" x="390" y="-1831" font-family="DejaVu Sans" font-size="10.00">+ labels.csv (4&#45;digit)</text>
<text text-anchor="middle" x="390" y="-1820" font-family="DejaVu Sans" font-size="10.00">+ marker&#45;list</text>
</g>
<!-- cfg -->
<g id="node2" class="node">
<title>cfg</title>
<path fill="#fef9e7" stroke="#f1c40f" stroke-width="1.2" d="M466,-1780C466,-1780 314,-1780 314,-1780 308,-1780 302,-1774 302,-1768 302,-1768 302,-1740 302,-1740 302,-1734 308,-1728 314,-1728 314,-1728 466,-1728 466,-1728 472,-1728 478,-1734 478,-1740 478,-1740 478,-1768 478,-1768 478,-1774 472,-1780 466,-1780"/>
<text text-anchor="middle" x="390" y="-1768" font-family="DejaVu Sans" font-size="10.00">RunConfig.from_vcf</text>
<text text-anchor="middle" x="390" y="-1757" font-family="DejaVu Sans" font-size="10.00">phase=auto → OFF (opt&#45;in)</text>
<text text-anchor="middle" x="390" y="-1746" font-family="DejaVu Sans" font-size="10.00">use_pair / use_ridge nếu n&lt;4000</text>
<text text-anchor="middle" x="390" y="-1735" font-family="DejaVu Sans" font-size="10.00">phase_skip = DPB1</text>
</g>
<!-- vcf&#45;&gt;cfg -->
<g id="edge11" class="edge">
<title>vcf&#45;&gt;cfg</title>
<path fill="none" stroke="#5d6d7e" d="M390,-1812.61C390,-1812.61 390,-1787.16 390,-1787.16"/>
<polygon fill="#5d6d7e" stroke="#5d6d7e" points="392.45,-1787.16 390,-1780.16 387.55,-1787.16 392.45,-1787.16"/>
</g>
<!-- ds -->
<g id="node3" class="node">
<title>ds</title>
<path fill="#eaf2f8" stroke="#7f8c8d" stroke-width="1.2" d="M474.5,-1695C474.5,-1695 305.5,-1695 305.5,-1695 299.5,-1695 293.5,-1689 293.5,-1683 293.5,-1683 293.5,-1666 293.5,-1666 293.5,-1660 299.5,-1654 305.5,-1654 305.5,-1654 474.5,-1654 474.5,-1654 480.5,-1654 486.5,-1660 486.5,-1666 486.5,-1666 486.5,-1683 486.5,-1683 486.5,-1689 480.5,-1695 474.5,-1695"/>
<text text-anchor="middle" x="390" y="-1683" font-family="DejaVu Sans" font-size="10.00">load_dataset</text>
<text text-anchor="middle" x="390" y="-1672" font-family="DejaVu Sans" font-size="10.00">2 kênh: dosage = OR+AND, missing</text>
<text text-anchor="middle" x="390" y="-1661" font-family="DejaVu Sans" font-size="10.00">(cM &amp; stem đã gỡ)</text>
</g>
<!-- cfg&#45;&gt;ds -->
<g id="edge12" class="edge">
<title>cfg&#45;&gt;ds</title>
<path fill="none" stroke="#5d6d7e" d="M390,-1727.97C390,-1727.97 390,-1702.04 390,-1702.04"/>
<polygon fill="#5d6d7e" stroke="#5d6d7e" points="392.45,-1702.04 390,-1695.04 387.55,-1702.04 392.45,-1702.04"/>
</g>
<!-- hold -->
<g id="node4" class="node">
<title>hold</title>
<path fill="#eaf2f8" stroke="#7f8c8d" stroke-width="1.2" d="M454,-1621C454,-1621 326,-1621 326,-1621 320,-1621 314,-1615 314,-1609 314,-1609 314,-1597 314,-1597 314,-1591 320,-1585 326,-1585 326,-1585 454,-1585 454,-1585 460,-1585 466,-1591 466,-1597 466,-1597 466,-1609 466,-1609 466,-1615 460,-1621 454,-1621"/>
<text text-anchor="middle" x="390" y="-1606" font-family="DejaVu Sans" font-size="10.00">_holdout: val = 5% train</text>
<text text-anchor="middle" x="390" y="-1595" font-family="DejaVu Sans" font-size="10.00">(kfold_by_sample, seed 77)</text>
</g>
<!-- ds&#45;&gt;hold -->
<g id="edge13" class="edge">
<title>ds&#45;&gt;hold</title>
<path fill="none" stroke="#5d6d7e" d="M390,-1653.82C390,-1653.82 390,-1628.44 390,-1628.44"/>
<polygon fill="#5d6d7e" stroke="#5d6d7e" points="392.45,-1628.44 390,-1621.44 387.55,-1628.44 392.45,-1628.44"/>
</g>
<!-- corrupt -->
<g id="node5" class="node">
<title>corrupt</title>
<path fill="#e8f6ef" stroke="#7f8c8d" stroke-width="1.2" d="M377,-1533C377,-1533 261,-1533 261,-1533 255,-1533 249,-1527 249,-1521 249,-1521 249,-1509 249,-1509 249,-1503 255,-1497 261,-1497 261,-1497 377,-1497 377,-1497 383,-1497 389,-1503 389,-1509 389,-1509 389,-1521 389,-1521 389,-1527 383,-1533 377,-1533"/>
<text text-anchor="middle" x="319" y="-1518" font-family="DejaVu Sans" font-size="10.00">corrupt: mask 5% marker</text>
<text text-anchor="middle" x="319" y="-1507" font-family="DejaVu Sans" font-size="10.00">(dosage→0, missing→1)</text>
</g>
<!-- hold&#45;&gt;corrupt -->
<g id="edge14" class="edge">
<title>hold&#45;&gt;corrupt</title>
<path fill="none" stroke="#5d6d7e" d="M351.5,-1584.77C351.5,-1584.77 351.5,-1576.6 351.5,-1567.25"/>
<polygon fill="#5d6d7e" stroke="#5d6d7e" points="353.95,-1567 351.5,-1560 349.05,-1567 353.95,-1567"/>
</g>
<!-- st1 -->
<g id="node9" class="node">
<title>st1</title>
<path fill="#f5eef8" stroke="#7f8c8d" stroke-width="1.2" d="M429.5,-1224C429.5,-1224 334.5,-1224 334.5,-1224 328.5,-1224 322.5,-1218 322.5,-1212 322.5,-1212 322.5,-1200 322.5,-1200 322.5,-1194 328.5,-1188 334.5,-1188 334.5,-1188 429.5,-1188 429.5,-1188 435.5,-1188 441.5,-1194 441.5,-1200 441.5,-1200 441.5,-1212 441.5,-1212 441.5,-1218 435.5,-1224 429.5,-1224"/>
<text text-anchor="middle" x="382" y="-1209" font-family="DejaVu Sans" font-size="10.00">Giai đoạn 1 — 2&#45;digit</text>
<text text-anchor="middle" x="382" y="-1198" font-family="DejaVu Sans" font-size="10.00">BCE, rare_bce = 0</text>
</g>
<!-- hold&#45;&gt;st1 -->
<g id="edge15" class="edge">
<title>hold&#45;&gt;st1</title>
<path fill="none" stroke="#5d6d7e" d="M416.5,-1584.91C416.5,-1584.91 416.5,-1340.49 416.5,-1258.01"/>
<polygon fill="#5d6d7e" stroke="#5d6d7e" points="418.95,-1258 416.5,-1251 414.05,-1258 418.95,-1258"/>
</g>
<!-- bb1 -->
<g id="node6" class="node">
<title>bb1</title>
<path fill="#d5f5e3" stroke="#7f8c8d" stroke-width="1.2" d="M376.5,-1464C376.5,-1464 245.5,-1464 245.5,-1464 239.5,-1464 233.5,-1458 233.5,-1452 233.5,-1452 233.5,-1435 233.5,-1435 233.5,-1429 239.5,-1423 245.5,-1423 245.5,-1423 376.5,-1423 376.5,-1423 382.5,-1423 388.5,-1429 388.5,-1435 388.5,-1435 388.5,-1452 388.5,-1452 388.5,-1458 382.5,-1464 376.5,-1464"/>
<text text-anchor="middle" x="311" y="-1452" font-family="DejaVu Sans" font-size="10.00">CoNetBackbone</text>
<text text-anchor="middle" x="311" y="-1441" font-family="DejaVu Sans" font-size="10.00">enc1 k64/s2 → enc2 k64/s2</text>
<text text-anchor="middle" x="311" y="-1430" font-family="DejaVu Sans" font-size="10.00">dec1/dec2 k63 → LayerNorm</text>
</g>
<!-- corrupt&#45;&gt;bb1 -->
<g id="edge1" class="edge">
<title>corrupt&#45;&gt;bb1</title>
<path fill="none" stroke="#5d6d7e" d="M318.75,-1496.96C318.75,-1496.96 318.75,-1471.07 318.75,-1471.07"/>
<polygon fill="#5d6d7e" stroke="#5d6d7e" points="321.2,-1471.07 318.75,-1464.07 316.3,-1471.07 321.2,-1471.07"/>
</g>
<!-- rh -->
<g id="node7" class="node">
<title>rh</title>
<path fill="#e8f6ef" stroke="#7f8c8d" stroke-width="1.2" d="M379.5,-1390C379.5,-1390 236.5,-1390 236.5,-1390 230.5,-1390 224.5,-1384 224.5,-1378 224.5,-1378 224.5,-1366 224.5,-1366 224.5,-1360 230.5,-1354 236.5,-1354 236.5,-1354 379.5,-1354 379.5,-1354 385.5,-1354 391.5,-1360 391.5,-1366 391.5,-1366 391.5,-1378 391.5,-1378 391.5,-1384 385.5,-1390 379.5,-1390"/>
<text text-anchor="middle" x="308" y="-1375" font-family="DejaVu Sans" font-size="10.00">ReconstructionHead</text>
<text text-anchor="middle" x="308" y="-1364" font-family="DejaVu Sans" font-size="10.00">Conv1d(64→3): dosage {0,1,2}</text>
</g>
<!-- bb1&#45;&gt;rh -->
<g id="edge2" class="edge">
<title>bb1&#45;&gt;rh</title>
<path fill="none" stroke="#5d6d7e" d="M311,-1422.82C311,-1422.82 311,-1397.44 311,-1397.44"/>
<polygon fill="#5d6d7e" stroke="#5d6d7e" points="313.45,-1397.44 311,-1390.44 308.55,-1397.44 313.45,-1397.44"/>
</g>
<!-- s1ck -->
<g id="node8" class="node">
<title>s1ck</title>
<polygon fill="#ffffff" stroke="#7f8c8d" stroke-width="1.2" points="377,-1321 249,-1321 249,-1285 383,-1285 383,-1315 377,-1321"/>
<polyline fill="none" stroke="#7f8c8d" stroke-width="1.2" points="377,-1321 377,-1315 "/>
<polyline fill="none" stroke="#7f8c8d" stroke-width="1.2" points="383,-1315 377,-1315 "/>
<text text-anchor="middle" x="316" y="-1306" font-family="DejaVu Sans" font-size="10.00">s1.pt</text>
<text text-anchor="middle" x="316" y="-1295" font-family="DejaVu Sans" font-size="10.00">backbone + recon_head</text>
</g>
<!-- rh&#45;&gt;s1ck -->
<g id="edge3" class="edge">
<title>rh&#45;&gt;s1ck</title>
<path fill="none" stroke="#5d6d7e" d="M316,-1353.87C316,-1353.87 316,-1328.25 316,-1328.25"/>
<polygon fill="#5d6d7e" stroke="#5d6d7e" points="318.45,-1328.25 316,-1321.25 313.55,-1328.25 318.45,-1328.25"/>
</g>
<!-- s1ck&#45;&gt;st1 -->
<g id="edge16" class="edge">
<title>s1ck&#45;&gt;st1</title>
<path fill="none" stroke="#5d6d7e" d="M352.75,-1284.76C352.75,-1284.76 352.75,-1231.16 352.75,-1231.16"/>
<polygon fill="#5d6d7e" stroke="#5d6d7e" points="355.2,-1231.16 352.75,-1224.16 350.3,-1231.16 355.2,-1231.16"/>
<text text-anchor="middle" x="367.5" y="-1261.8" font-family="DejaVu Sans" font-size="9.00">nạp backbone</text>
</g>
<!-- st2 -->
<g id="node10" class="node">
<title>st2</title>
<path fill="#f5eef8" stroke="#7f8c8d" stroke-width="1.2" d="M444,-1136C444,-1136 320,-1136 320,-1136 314,-1136 308,-1130 308,-1124 308,-1124 308,-1112 308,-1112 308,-1106 314,-1100 320,-1100 320,-1100 444,-1100 444,-1100 450,-1100 456,-1106 456,-1112 456,-1112 456,-1124 456,-1124 456,-1130 450,-1136 444,-1136"/>
<text text-anchor="middle" x="382" y="-1121" font-family="DejaVu Sans" font-size="10.00">Giai đoạn 2 — 4&#45;digit</text>
<text text-anchor="middle" x="382" y="-1110" font-family="DejaVu Sans" font-size="10.00">rare&#45;weighted BCE, w ≤ 10</text>
</g>
<!-- st1&#45;&gt;st2 -->
<g id="edge4" class="edge">
<title>st1&#45;&gt;st2</title>
<path fill="none" stroke="#5d6d7e" d="M382,-1187.77C382,-1187.77 382,-1143.21 382,-1143.21"/>
<polygon fill="#5d6d7e" stroke="#5d6d7e" points="384.45,-1143.21 382,-1136.21 379.55,-1143.21 384.45,-1143.21"/>
<text text-anchor="middle" x="410" y="-1164.8" font-family="DejaVu Sans" font-size="9.00">warm&#45;start,</text>
<text text-anchor="middle" x="410" y="-1154.8" font-family="DejaVu Sans" font-size="9.00">gieo lại seed</text>
</g>
<!-- net -->
<g id="node11" class="node">
<title>net</title>
<path fill="#e8daef" stroke="#8e44ad" stroke-width="1.2" d="M498.5,-1048C498.5,-1048 265.5,-1048 265.5,-1048 259.5,-1048 253.5,-1042 253.5,-1036 253.5,-1036 253.5,-1012 253.5,-1012 253.5,-1006 259.5,-1000 265.5,-1000 265.5,-1000 498.5,-1000 498.5,-1000 504.5,-1000 510.5,-1006 510.5,-1012 510.5,-1012 510.5,-1036 510.5,-1036 510.5,-1042 504.5,-1048 498.5,-1048"/>
<text text-anchor="start" x="359" y="-1037" font-family="DejaVu Sans" font-weight="bold" font-size="10.00">AutoNet</text>
<text text-anchor="start" x="284.5" y="-1027" font-family="DejaVu Sans" font-size="10.00">backbone → flatten → shared Linear 256</text>
<text text-anchor="start" x="304" y="-1017" font-family="DejaVu Sans" font-size="10.00">LayerNorm · GELU · Dropout 0.1</text>
<text text-anchor="start" x="261.5" y="-1007" font-family="DejaVu Sans" font-size="10.00">HLA_Blocks/gene: fc1→bn→fc2→bn→fc3→sigmoid</text>
</g>
<!-- st2&#45;&gt;net -->
<g id="edge5" class="edge">
<title>st2&#45;&gt;net</title>
<path fill="none" stroke="#5d6d7e" d="M382,-1099.88C382,-1099.88 382,-1055.12 382,-1055.12"/>
<polygon fill="#5d6d7e" stroke="#5d6d7e" points="384.45,-1055.12 382,-1048.12 379.55,-1055.12 384.45,-1055.12"/>
<text text-anchor="middle" x="425" y="-1076.8" font-family="DejaVu Sans" font-size="9.00">model.train()</text>
<text text-anchor="middle" x="425" y="-1066.8" font-family="DejaVu Sans" font-size="9.00">NGOÀI vòng epoch</text>
</g>
<!-- oof -->
<g id="node12" class="node">
<title>oof</title>
<path fill="#fae5d3" stroke="#7f8c8d" stroke-width="1.2" d="M478.5,-948C478.5,-948 281.5,-948 281.5,-948 275.5,-948 269.5,-942 269.5,-936 269.5,-936 269.5,-919 269.5,-919 269.5,-913 275.5,-907 281.5,-907 281.5,-907 478.5,-907 478.5,-907 484.5,-907 490.5,-913 490.5,-919 490.5,-919 490.5,-936 490.5,-936 490.5,-942 484.5,-948 478.5,-948"/>
<text text-anchor="middle" x="380" y="-936" font-family="DejaVu Sans" font-size="10.00">_oof_arms — 10&#45;fold OOF</text>
<text text-anchor="middle" x="380" y="-925" font-family="DejaVu Sans" font-size="10.00">mỗi fold train lại từ đầu</text>
<text text-anchor="middle" x="380" y="-914" font-family="DejaVu Sans" font-size="10.00">(base memorize train ⇒ cấm fit trên train)</text>
</g>
<!-- net&#45;&gt;oof -->
<g id="edge17" class="edge">
<title>net&#45;&gt;oof</title>
<path fill="none" stroke="#5d6d7e" d="M380,-999.65C380,-999.65 380,-991.52 380,-982.22"/>
<polygon fill="#5d6d7e" stroke="#5d6d7e" points="382.45,-982 380,-975 377.55,-982 382.45,-982"/>
</g>
<!-- model -->
<g id="node17" class="node">
<title>model</title>
<polygon fill="#d6eaf8" stroke="#2980b9" stroke-width="1.2" points="519.5,-611 516.5,-615 495.5,-615 492.5,-611 252.5,-611 252.5,-553 519.5,-553 519.5,-611"/>
<text text-anchor="start" x="260.5" y="-600" font-family="DejaVu Sans" font-weight="bold" font-size="10.00">model/</text>
<text text-anchor="start" x="260.5" y="-590" font-family="DejaVu Sans" font-size="10.00">manifest.json — config, n_train, β, τ, freq (AF train)</text>
<text text-anchor="start" x="260.5" y="-580" font-family="DejaVu Sans" font-size="10.00">markers.tsv — marker đóng băng</text>
<text text-anchor="start" x="260.5" y="-570" font-family="DejaVu Sans" font-size="10.00">encoder.pkl — allele universe (pickle!)</text>
<text text-anchor="start" x="260.5" y="-560" font-family="DejaVu Sans" font-size="10.00">trunk.pt · head.pt · [pair.pt] · [ridge.npz]</text>
</g>
<!-- net&#45;&gt;model -->
<g id="edge18" class="edge">
<title>net&#45;&gt;model</title>
<path fill="none" stroke="#5d6d7e" d="M501.5,-999.92C501.5,-999.92 501.5,-618.18 501.5,-618.18"/>
<polygon fill="#5d6d7e" stroke="#5d6d7e" points="503.95,-618.18 501.5,-611.18 499.05,-618.18 503.95,-618.18"/>
</g>
<!-- pairA -->
<g id="node13" class="node">
<title>pairA</title>
<path fill="#fdebd0" stroke="#7f8c8d" stroke-width="1.2" d="M230,-874C230,-874 36,-874 36,-874 30,-874 24,-868 24,-862 24,-862 24,-818 24,-818 24,-812 30,-806 36,-806 36,-806 230,-806 230,-806 236,-806 242,-812 242,-818 242,-818 242,-862 242,-862 242,-868 236,-874 230,-874"/>
<text text-anchor="start" x="96.5" y="-863" font-family="DejaVu Sans" font-weight="bold" font-size="10.00">Arm nền</text>
<text text-anchor="start" x="144.5" y="-863" font-family="DejaVu Sans" font-size="10.00">: pair</text>
<text text-anchor="start" x="32" y="-853" font-family="DejaVu Sans" font-size="10.00">fine&#45;tune BẢN SAO net + PairEnergyHead</text>
<text text-anchor="start" x="67" y="-843" font-family="DejaVu Sans" font-size="10.00">rank 16, cặp KHÔNG thứ tự</text>
<text text-anchor="start" x="68" y="-833" font-family="DejaVu Sans" font-size="10.00">loss = BCE + 0.2·pair_loss</text>
<text text-anchor="start" x="66.5" y="-823" font-family="DejaVu Sans" font-size="10.00">lr 1e&#45;4 (trunk) / 5e&#45;4 (head)</text>
<text text-anchor="start" x="65.5" y="-813" font-family="DejaVu Sans" font-size="10.00">early&#45;stop theo F1 bin &lt;1%</text>
</g>
<!-- oof&#45;&gt;pairA -->
<g id="edge6" class="edge">
<title>oof&#45;&gt;pairA</title>
<path fill="none" stroke="#5d6d7e" d="M269.15,-927C248.49,-927 233.25,-927 233.25,-927 233.25,-927 233.25,-881.38 233.25,-881.38"/>
<polygon fill="#5d6d7e" stroke="#5d6d7e" points="235.7,-881.38 233.25,-874.38 230.8,-881.38 235.7,-881.38"/>
</g>
<!-- ridgeA -->
<g id="node14" class="node">
<title>ridgeA</title>
<path fill="#fdebd0" stroke="#7f8c8d" stroke-width="1.2" d="M480.5,-859C480.5,-859 279.5,-859 279.5,-859 273.5,-859 267.5,-853 267.5,-847 267.5,-847 267.5,-833 267.5,-833 267.5,-827 273.5,-821 279.5,-821 279.5,-821 480.5,-821 480.5,-821 486.5,-821 492.5,-827 492.5,-833 492.5,-833 492.5,-847 492.5,-847 492.5,-853 486.5,-859 480.5,-859"/>
<text text-anchor="start" x="305.5" y="-848" font-family="DejaVu Sans" font-weight="bold" font-size="10.00">Arm phụ</text>
<text text-anchor="start" x="354.5" y="-848" font-family="DejaVu Sans" font-size="10.00">: ridge trên z (256&#45;d)</text>
<text text-anchor="start" x="318.5" y="-838" font-family="DejaVu Sans" font-size="10.00">z&#45;score → chọn λ trên val</text>
<text text-anchor="start" x="275.5" y="-828" font-family="DejaVu Sans" font-size="10.00">đọc z của trunk NỀN, không phải trunk pair</text>
</g>
<!-- oof&#45;&gt;ridgeA -->
<g id="edge7" class="edge">
<title>oof&#45;&gt;ridgeA</title>
<path fill="none" stroke="#5d6d7e" d="M380,-906.76C380,-906.76 380,-866.09 380,-866.09"/>
<polygon fill="#5d6d7e" stroke="#5d6d7e" points="382.45,-866.09 380,-859.09 377.55,-866.09 382.45,-866.09"/>
</g>
<!-- beta -->
<g id="node15" class="node">
<title>beta</title>
<path fill="#f8c471" stroke="#d35400" stroke-width="1.2" d="M467,-773C467,-773 293,-773 293,-773 287,-773 281,-767 281,-761 281,-761 281,-744 281,-744 281,-738 287,-732 293,-732 293,-732 467,-732 467,-732 473,-732 479,-738 479,-744 479,-744 479,-761 479,-761 479,-767 473,-773 467,-773"/>
<text text-anchor="middle" x="380" y="-761" font-family="DejaVu Sans" font-size="10.00">fit_beta trên dự đoán OOF</text>
<text text-anchor="middle" x="380" y="-750" font-family="DejaVu Sans" font-size="10.00">s = norm( p_nền^(1&#45;β) · p_phụ^β )</text>
<text text-anchor="middle" x="380" y="-739" font-family="DejaVu Sans" font-size="10.00">β TÁCH rare/common, af_split = 0.20</text>
</g>
<!-- pairA&#45;&gt;beta -->
<g id="edge8" class="edge">
<title>pairA&#45;&gt;beta</title>
<path fill="none" stroke="#5d6d7e" d="M242.19,-813C294.95,-813 347,-813 347,-813 347,-813 347,-780.32 347,-780.32"/>
<polygon fill="#5d6d7e" stroke="#5d6d7e" points="349.45,-780.32 347,-773.32 344.55,-780.32 349.45,-780.32"/>
</g>
<!-- ridgeA&#45;&gt;beta -->
<g id="edge9" class="edge">
<title>ridgeA&#45;&gt;beta</title>
<path fill="none" stroke="#5d6d7e" d="M413,-820.58C413,-820.58 413,-780.08 413,-780.08"/>
<polygon fill="#5d6d7e" stroke="#5d6d7e" points="415.45,-780.08 413,-773.08 410.55,-780.08 415.45,-780.08"/>
</g>
<!-- tau -->
<g id="node16" class="node">
<title>tau</title>
<path fill="#f8c471" stroke="#d35400" stroke-width="1.2" d="M461.5,-699C461.5,-699 306.5,-699 306.5,-699 300.5,-699 294.5,-693 294.5,-687 294.5,-687 294.5,-670 294.5,-670 294.5,-664 300.5,-658 306.5,-658 306.5,-658 461.5,-658 461.5,-658 467.5,-658 473.5,-664 473.5,-670 473.5,-670 473.5,-687 473.5,-687 473.5,-693 467.5,-699 461.5,-699"/>
<text text-anchor="middle" x="384" y="-687" font-family="DejaVu Sans" font-size="10.00">tune_tau trên val 5%</text>
<text text-anchor="middle" x="384" y="-676" font-family="DejaVu Sans" font-size="10.00">bội số dị hợp; HW τ=2 là fallback</text>
<text text-anchor="middle" x="384" y="-665" font-family="DejaVu Sans" font-size="10.00">fit trên ĐÚNG phân bố lúc impute</text>
</g>
<!-- beta&#45;&gt;tau -->
<g id="edge10" class="edge">
<title>beta&#45;&gt;tau</title>
<path fill="none" stroke="#5d6d7e" d="M384,-731.89C384,-731.89 384,-706 384,-706"/>
<polygon fill="#5d6d7e" stroke="#5d6d7e" points="386.45,-706 384,-699 381.55,-706 386.45,-706"/>
</g>
<!-- tau&#45;&gt;model -->
<g id="edge19" class="edge">
<title>tau&#45;&gt;model</title>
<path fill="none" stroke="#5d6d7e" d="M384,-657.56C384,-657.56 384,-618.32 384,-618.32"/>
<polygon fill="#5d6d7e" stroke="#5d6d7e" points="386.45,-618.32 384,-611.32 381.55,-618.32 386.45,-618.32"/>
</g>
<!-- chk -->
<g id="node19" class="node">
<title>chk</title>
<path fill="#fadbd8" stroke="#c0392b" stroke-width="1.2" d="M706.17,-498.96C706.17,-498.96 555.83,-473.04 555.83,-473.04 549.91,-472.02 549.91,-469.98 555.83,-468.96 555.83,-468.96 706.17,-443.04 706.17,-443.04 712.09,-442.02 723.91,-442.02 729.83,-443.04 729.83,-443.04 880.17,-468.96 880.17,-468.96 886.09,-469.98 886.09,-472.02 880.17,-473.04 880.17,-473.04 729.83,-498.96 729.83,-498.96 723.91,-499.98 712.09,-499.98 706.17,-498.96"/>
<text text-anchor="middle" x="718" y="-474" font-family="DejaVu Sans" font-size="10.00">chồng lấn marker ≥ 50%</text>
<text text-anchor="middle" x="718" y="-463" font-family="DejaVu Sans" font-size="10.00">không đạt → dừng, không trả rác</text>
</g>
<!-- model&#45;&gt;chk -->
<g id="edge26" class="edge">
<title>model&#45;&gt;chk</title>
<path fill="none" stroke="#2980b9" stroke-dasharray="5,2" d="M519.76,-558C569.58,-558 614.25,-558 614.25,-558 614.25,-558 614.25,-490.46 614.25,-490.46"/>
<polygon fill="#2980b9" stroke="#2980b9" points="616.7,-490.46 614.25,-483.46 611.8,-490.47 616.7,-490.46"/>
<text text-anchor="middle" x="548.5" y="-529.8" font-family="DejaVu Sans" font-size="9.00"> &#160;markers, encoder,</text>
<text text-anchor="middle" x="548.5" y="-519.8" font-family="DejaVu Sans" font-size="9.00"> &#160;β, τ, freq, trọng số</text>
</g>
<!-- tvcf -->
<g id="node18" class="node">
<title>tvcf</title>
<polygon fill="#fdebd0" stroke="#e67e22" stroke-width="1.2" points="751.5,-600 748.5,-604 727.5,-604 724.5,-600 684.5,-600 684.5,-564 751.5,-564 751.5,-600"/>
<text text-anchor="middle" x="718" y="-579.5" font-family="DejaVu Sans" font-size="10.00">test.vcf.gz</text>
</g>
<!-- tvcf&#45;&gt;chk -->
<g id="edge20" class="edge">
<title>tvcf&#45;&gt;chk</title>
<path fill="none" stroke="#5d6d7e" d="M718,-563.67C718,-563.67 718,-508.08 718,-508.08"/>
<polygon fill="#5d6d7e" stroke="#5d6d7e" points="720.45,-508.08 718,-501.08 715.55,-508.08 720.45,-508.08"/>
</g>
<!-- fwd -->
<g id="node20" class="node">
<title>fwd</title>
<path fill="#e8f8f5" stroke="#7f8c8d" stroke-width="1.2" d="M780,-408C780,-408 656,-408 656,-408 650,-408 644,-402 644,-396 644,-396 644,-384 644,-384 644,-378 650,-372 656,-372 656,-372 780,-372 780,-372 786,-372 792,-378 792,-384 792,-384 792,-396 792,-396 792,-402 786,-408 780,-408"/>
<text text-anchor="middle" x="718" y="-393" font-family="DejaVu Sans" font-size="10.00">load_dataset (markers.tsv)</text>
<text text-anchor="middle" x="718" y="-382" font-family="DejaVu Sans" font-size="10.00">AutoNet → score, z</text>
</g>
<!-- chk&#45;&gt;fwd -->
<g id="edge21" class="edge">
<title>chk&#45;&gt;fwd</title>
<path fill="none" stroke="#5d6d7e" d="M718,-440.84C718,-440.84 718,-415.18 718,-415.18"/>
<polygon fill="#5d6d7e" stroke="#5d6d7e" points="720.45,-415.18 718,-408.18 715.55,-415.18 720.45,-415.18"/>
</g>
<!-- base -->
<g id="node21" class="node">
<title>base</title>
<path fill="#e8f8f5" stroke="#7f8c8d" stroke-width="1.2" d="M790.5,-339C790.5,-339 645.5,-339 645.5,-339 639.5,-339 633.5,-333 633.5,-327 633.5,-327 633.5,-315 633.5,-315 633.5,-309 639.5,-303 645.5,-303 645.5,-303 790.5,-303 790.5,-303 796.5,-303 802.5,-309 802.5,-315 802.5,-315 802.5,-327 802.5,-327 802.5,-333 796.5,-339 790.5,-339"/>
<text text-anchor="middle" x="718" y="-324" font-family="DejaVu Sans" font-size="10.00">nền = dosage của pair (nếu có)</text>
<text text-anchor="middle" x="718" y="-313" font-family="DejaVu Sans" font-size="10.00">ngược lại = to_prob(score)</text>
</g>
<!-- fwd&#45;&gt;base -->
<g id="edge22" class="edge">
<title>fwd&#45;&gt;base</title>
<path fill="none" stroke="#5d6d7e" d="M718,-371.87C718,-371.87 718,-346.25 718,-346.25"/>
<polygon fill="#5d6d7e" stroke="#5d6d7e" points="720.45,-346.25 718,-339.25 715.55,-346.25 720.45,-346.25"/>
</g>
<!-- bl -->
<g id="node22" class="node">
<title>bl</title>
<path fill="#d1f2eb" stroke="#7f8c8d" stroke-width="1.2" d="M777.5,-270C777.5,-270 658.5,-270 658.5,-270 652.5,-270 646.5,-264 646.5,-258 646.5,-258 646.5,-241 646.5,-241 646.5,-235 652.5,-229 658.5,-229 658.5,-229 777.5,-229 777.5,-229 783.5,-229 789.5,-235 789.5,-241 789.5,-241 789.5,-258 789.5,-258 789.5,-264 783.5,-270 777.5,-270"/>
<text text-anchor="middle" x="718" y="-258" font-family="DejaVu Sans" font-size="10.00">blend(β_rare, β_common)</text>
<text text-anchor="middle" x="718" y="-247" font-family="DejaVu Sans" font-size="10.00">AF lấy từ manifest.freq</text>
<text text-anchor="middle" x="718" y="-236" font-family="DejaVu Sans" font-size="10.00">KHÔNG ước lượng lại từ lô</text>
</g>
<!-- base&#45;&gt;bl -->
<g id="edge23" class="edge">
<title>base&#45;&gt;bl</title>
<path fill="none" stroke="#5d6d7e" d="M718,-302.96C718,-302.96 718,-277.07 718,-277.07"/>
<polygon fill="#5d6d7e" stroke="#5d6d7e" points="720.45,-277.07 718,-270.07 715.55,-277.07 720.45,-277.07"/>
</g>
<!-- dec -->
<g id="node23" class="node">
<title>dec</title>
<path fill="#d1f2eb" stroke="#7f8c8d" stroke-width="1.2" d="M783,-196C783,-196 653,-196 653,-196 647,-196 641,-190 641,-184 641,-184 641,-172 641,-172 641,-166 647,-160 653,-160 653,-160 783,-160 783,-160 789,-160 795,-166 795,-172 795,-172 795,-184 795,-184 795,-190 789,-196 783,-196"/>
<text text-anchor="middle" x="718" y="-181" font-family="DejaVu Sans" font-size="10.00">map_diploid_pairs(top&#45;5, τ)</text>
<text text-anchor="middle" x="718" y="-170" font-family="DejaVu Sans" font-size="10.00">P(hom)=p², P(het)=τ·p_i·p_j</text>
</g>
<!-- bl&#45;&gt;dec -->
<g id="edge24" class="edge">
<title>bl&#45;&gt;dec</title>
<path fill="none" stroke="#5d6d7e" d="M718,-228.82C718,-228.82 718,-203.44 718,-203.44"/>
<polygon fill="#5d6d7e" stroke="#5d6d7e" points="720.45,-203.44 718,-196.44 715.55,-203.44 720.45,-203.44"/>
</g>
<!-- out -->
<g id="node24" class="node">
<title>out</title>
<polygon fill="#ffffff" stroke="#7f8c8d" stroke-width="1.2" points="829.5,-127 600.5,-127 600.5,-91 835.5,-91 835.5,-121 829.5,-127"/>
<polyline fill="none" stroke="#7f8c8d" stroke-width="1.2" points="829.5,-127 829.5,-121 "/>
<polyline fill="none" stroke="#7f8c8d" stroke-width="1.2" points="835.5,-121 829.5,-121 "/>
<text text-anchor="middle" x="718" y="-112" font-family="DejaVu Sans" font-size="10.00">calls.csv</text>
<text text-anchor="middle" x="718" y="-101" font-family="DejaVu Sans" font-size="10.00">sample_id, gene, allele_1, allele_2, posterior</text>
</g>
<!-- dec&#45;&gt;out -->
<g id="edge25" class="edge">
<title>dec&#45;&gt;out</title>
<path fill="none" stroke="#5d6d7e" d="M718,-159.87C718,-159.87 718,-134.25 718,-134.25"/>
<polygon fill="#5d6d7e" stroke="#5d6d7e" points="720.45,-134.25 718,-127.25 715.55,-134.25 720.45,-134.25"/>
</g>
<!-- dead -->
<g id="node25" class="node">
<title>dead</title>
<polygon fill="#f4f6f6" stroke="#95a5a6" stroke-width="1.2" stroke-dasharray="5,2" points="859,-58 577,-58 577,0 859,0 859,-58"/>
<text text-anchor="start" x="632" y="-47" font-family="DejaVu Sans" font-weight="bold" font-size="10.00" fill="#7f8c8d">Đã đo và LOẠI khỏi bản public</text>
<text text-anchor="start" x="585" y="-37" font-family="DejaVu Sans" font-size="10.00" fill="#7f8c8d">kênh cM · lớp stem phi tuyến · cross&#45;attention decoder</text>
<text text-anchor="start" x="610.5" y="-27" font-family="DejaVu Sans" font-size="10.00" fill="#7f8c8d">TF blocks · pair MLP scorer · pair prior · SWA</text>
<text text-anchor="start" x="603" y="-17" font-family="DejaVu Sans" font-size="10.00" fill="#7f8c8d">Phaser học được (switch&#45;error cliff) · HLA_DPA1</text>
<text text-anchor="start" x="617" y="-7" font-family="DejaVu Sans" font-size="10.00" fill="#7f8c8d">nhánh use_cross_validation của hla_train</text>
</g>
<!-- out&#45;&gt;dead -->
</g>
</svg>
